# xmcd CD database file
#
# Track frame offsets:
#	150
#	28972
#	55114
#	73446
#	100020
#	115355
#	135165
#	150274
#	180934
#	216494
#
# Disc length: 3178 seconds
#
# Revision: 0
# Processed by: cddbd v1.5.1PL0 Copyright (c) Steve Scherf et al.
# Submitted via: CDex 1.51
#
DISCID=860c680a
DTITLE=Mark Austin Band - Cosmic Trigger
DYEAR=2002
DGENRE=Jazz
TTITLE0=I Think Of You
TTITLE1=Low Clouds
TTITLE2=Wake Up
TTITLE3=North Side Story
TTITLE4=Taste It
TTITLE5=Wheels
TTITLE6=Callin' Out My Name
TTITLE7=Journey Without Distance
TTITLE8=Dont Be Scared
TTITLE9=Uncle Blue
EXTD=YEAR: 2002
EXTT0=
EXTT1=
EXTT2=
EXTT3=
EXTT4=
EXTT5=
EXTT6=
EXTT7=
EXTT8=
EXTT9=
PLAYORDER=
